<?xml version="1.0" standalone="no"?>
<!DOCTYPE svg PUBLIC "-//W3C//DTD SVG 20010904//EN"
 "http://www.w3.org/TR/2001/REC-SVG-20010904/DTD/svg10.dtd">
<svg version="1.0" xmlns="http://www.w3.org/2000/svg"
 width="284.000000pt" height="284.000000pt" viewBox="0 0 284.000000 284.000000"
 preserveAspectRatio="xMidYMid meet">

<g transform="translate(0.000000,284.000000) scale(0.100000,-0.100000)"
fill="#000000" stroke="none">
<path d="M1064 2519 c-38 -11 -83 -54 -96 -91 -9 -26 -14 -28 -64 -28 -157 0
-294 -124 -312 -283 l-7 -60 -47 -14 c-88 -25 -128 -105 -128 -253 0 -144 40
-225 125 -254 l40 -13 0 -99 0 -99 -98 -5 c-72 -4 -100 -9 -107 -20 -6 -9 -10
-162 -10 -362 0 -301 2 -349 16 -362 13 -13 43 -16 178 -14 90 0 168 -2 173
-5 6 -4 7 -22 4 -43 -5 -31 -11 -38 -41 -48 -25 -8 -36 -18 -38 -34 -7 -49 4
-52 232 -52 224 0 236 2 236 47 l0 23 474 0 c261 0 481 3 490 6 13 5 16 22 15
88 -1 95 -8 125 -32 140 -28 17 -47 -15 -36 -62 5 -20 9 -52 9 -69 l0 -33
-500 0 c-429 0 -500 2 -500 14 0 24 18 28 44 11 21 -14 25 -14 39 0 20 19 26
19 49 -2 17 -15 19 -15 36 0 14 13 38 17 93 17 41 0 81 4 89 10 8 5 17 31 20
61 l5 53 44 3 c56 4 116 42 138 88 19 40 23 41 185 25 92 -9 135 -23 189 -62
22 -15 49 -3 49 21 0 24 -48 62 -106 84 -25 9 -93 19 -168 23 -109 6 -126 9
-124 23 3 14 29 17 178 23 214 8 261 13 322 40 66 28 140 110 162 180 13 43
32 238 36 384 0 6 18 16 39 23 47 14 96 66 110 118 14 49 14 217 1 265 -18 65
-87 128 -138 128 -23 0 -32 18 -32 65 0 54 -40 143 -84 189 -55 56 -125 88
-208 94 -68 5 -68 5 -93 48 -31 53 -74 77 -137 78 -51 0 -110 -36 -130 -80
-15 -32 -55 -33 -68 0 -11 31 -54 64 -99 76 -63 17 -137 -15 -166 -70 -21 -40
-54 -39 -80 2 -39 61 -105 87 -171 67z m846 -179 c91 -5 159 -15 183 -25 57
-24 115 -89 132 -149 46 -164 39 -937 -10 -1041 -22 -46 -73 -95 -120 -116
-48 -21 -285 -39 -527 -39 l-158 0 0 119 0 119 93 6 c50 3 179 8 285 11 203 5
242 13 291 58 38 35 50 78 62 214 13 141 5 526 -11 607 -12 57 -48 109 -92
132 -20 10 -76 19 -157 25 -169 11 -714 11 -875 -1 -148 -11 -190 -29 -225
-98 -32 -63 -51 -429 -32 -607 6 -56 8 -60 31 -60 l25 0 6 295 c4 239 8 302
21 332 28 64 44 68 270 80 214 11 790 3 867 -11 101 -20 115 -72 115 -446 0
-303 -9 -375 -53 -418 -28 -29 -31 -30 -177 -38 -82 -4 -214 -8 -294 -8 -134
-1 -147 1 -163 19 -15 18 -29 20 -138 20 -92 0 -120 -3 -117 -12 3 -9 40 -15
119 -18 l114 -5 3 -307 2 -308 -495 0 -495 0 2 308 3 307 344 5 c263 4 345 8
349 18 3 9 -23 12 -105 12 -124 0 -137 5 -157 65 -11 31 -19 40 -38 40 -18 0
-24 -6 -26 -27 -2 -15 2 -36 8 -48 10 -19 8 -20 -54 -20 -49 0 -65 4 -70 16
-9 25 -7 567 4 691 10 127 29 181 81 230 69 65 107 72 444 82 274 7 525 4 735
-9z m-906 -1812 c12 -45 7 -58 -19 -58 -15 0 -25 -6 -25 -15 0 -10 16 -15 62
-17 38 -2 63 -8 66 -15 3 -10 -42 -13 -203 -13 -161 0 -206 3 -203 13 3 8 40
14 119 17 130 6 151 23 34 28 -80 3 -83 6 -69 60 6 21 11 22 119 22 108 0 113
-1 119 -22z"/>
<path d="M1023 2119 c-92 -45 -116 -163 -48 -237 82 -92 218 -70 260 43 31 80
-2 161 -79 196 -53 24 -82 24 -133 -2z m119 -60 c11 -6 26 -26 34 -45 12 -29
12 -39 0 -68 -26 -64 -97 -76 -147 -27 -38 38 -39 87 -4 125 26 28 79 35 117
15z"/>
<path d="M1733 2119 c-98 -48 -118 -167 -41 -246 61 -63 155 -64 217 -3 78 79
57 206 -42 250 -54 25 -82 25 -134 -1z m132 -74 c54 -53 18 -155 -54 -155 -42
0 -77 18 -90 47 -31 69 6 133 79 133 30 0 47 -6 65 -25z"/>
<path d="M1275 1810 c-4 -6 -4 -32 0 -56 13 -91 123 -159 216 -134 77 21 134
93 127 161 -5 58 -57 49 -58 -10 0 -13 -15 -38 -34 -57 -29 -29 -41 -34 -79
-34 -60 0 -103 34 -114 93 -7 32 -14 43 -30 45 -12 2 -24 -2 -28 -8z"/>
<path d="M881 1741 c-17 -32 8 -42 96 -39 76 3 78 4 78 28 0 24 -2 25 -82 28
-72 2 -83 1 -92 -17z"/>
<path d="M1841 1746 c-6 -7 -9 -21 -5 -30 5 -13 22 -16 89 -16 67 0 84 3 89
16 12 32 -13 44 -89 44 -49 0 -76 -4 -84 -14z"/>
<path d="M887 1645 c-34 -34 0 -55 89 -55 61 0 94 20 78 47 -15 25 -144 31
-167 8z"/>
<path d="M1842 1648 c-34 -34 1 -58 85 -58 70 0 104 18 87 47 -9 14 -26 19
-85 21 -49 2 -78 -1 -87 -10z"/>
<path d="M453 1198 c6 -19 368 -19 375 0 3 9 -39 12 -188 12 -149 0 -191 -3
-187 -12z"/>
<path d="M1210 1095 l0 -115 55 0 55 0 0 115 0 115 -55 0 -55 0 0 -115z m80
-1 c0 -83 -1 -85 -22 -82 -21 3 -23 9 -26 86 -3 82 -3 82 23 82 25 0 25 -1 25
-86z"/>
<path d="M920 1075 l0 -96 53 3 52 3 0 90 0 90 -52 3 -53 3 0 -96z m70 0 c0
-58 -2 -65 -20 -65 -18 0 -20 7 -20 65 0 58 2 65 20 65 18 0 20 -7 20 -65z"/>
<path d="M450 1115 c0 -13 17 -15 123 -13 160 4 158 22 -3 26 -103 2 -120 0
-120 -13z"/>
<path d="M740 1115 c0 -11 12 -15 45 -15 33 0 45 4 45 15 0 11 -12 15 -45 15
-33 0 -45 -4 -45 -15z"/>
<path d="M1065 1107 c-4 -13 -5 -46 -3 -73 l3 -49 55 0 55 0 3 49 c6 86 -1 96
-58 96 -44 0 -50 -3 -55 -23z"/>
<path d="M457 1034 c-20 -20 9 -24 184 -24 148 0 190 3 187 13 -4 9 -51 13
-184 15 -99 1 -183 -1 -187 -4z"/>
<path d="M455 950 c-12 -19 10 -32 46 -28 48 4 46 32 -3 36 -20 2 -39 -2 -43
-8z"/>
<path d="M585 949 c-15 -23 15 -30 126 -27 93 2 114 6 114 18 0 12 -21 16
-117 18 -78 2 -119 -1 -123 -9z"/>
<path d="M1150 860 c-19 -38 -37 -70 -41 -70 -4 0 -20 26 -36 57 -15 31 -33
58 -39 60 -5 2 -20 -14 -32 -36 -16 -29 -28 -38 -47 -38 -31 0 -42 -10 -28
-24 19 -19 77 -6 88 19 5 12 12 22 15 22 3 0 19 -26 36 -57 16 -31 35 -58 40
-60 6 -2 28 30 50 71 l38 75 21 -37 c18 -33 25 -37 59 -37 49 0 60 22 14 27
-28 3 -37 10 -58 50 -14 27 -30 48 -36 48 -5 0 -25 -31 -44 -70z"/>
<path d="M453 858 c6 -19 368 -19 375 0 3 9 -39 12 -188 12 -149 0 -191 -3
-187 -12z"/>
<path d="M450 775 c0 -12 17 -15 95 -15 78 0 95 3 95 15 0 12 -17 15 -95 15
-78 0 -95 -3 -95 -15z"/>
</g>
</svg>
